<svg width="97" height="99" viewBox="0 0 97 99" fill="none" xmlns="http://www.w3.org/2000/svg">
<circle cx="2.12636" cy="56.9295" r="1.70436" fill="#D11C1C" fill-opacity="0.65"/>
<circle cx="15.4363" cy="56.9295" r="1.70436" fill="#D11C1C" fill-opacity="0.65"/>
<circle cx="28.7461" cy="56.9295" r="1.70436" fill="#D11C1C" fill-opacity="0.65"/>
<circle cx="42.0559" cy="56.9295" r="1.70436" fill="#D11C1C" fill-opacity="0.65"/>
<circle cx="2.12636" cy="70.385" r="1.70436" fill="#D11C1C" fill-opacity="0.65"/>
<circle cx="15.4363" cy="70.385" r="1.70436" fill="#D11C1C" fill-opacity="0.65"/>
<circle cx="28.7461" cy="70.385" r="1.70436" fill="#D11C1C" fill-opacity="0.65"/>
<circle cx="42.0559" cy="70.385" r="1.70436" fill="#D11C1C" fill-opacity="0.65"/>
<circle cx="2.12636" cy="83.8406" r="1.70436" fill="#D11C1C" fill-opacity="0.65"/>
<circle cx="15.4363" cy="83.8406" r="1.70436" fill="#D11C1C" fill-opacity="0.65"/>
<circle cx="28.7461" cy="83.8406" r="1.70436" fill="#D11C1C" fill-opacity="0.65"/>
<circle cx="42.0559" cy="83.8406" r="1.70436" fill="#D11C1C" fill-opacity="0.65"/>
<circle cx="2.12636" cy="97.2962" r="1.70436" fill="#D11C1C" fill-opacity="0.65"/>
<circle cx="15.4363" cy="97.2962" r="1.70436" fill="#D11C1C" fill-opacity="0.65"/>
<circle cx="28.7461" cy="97.2962" r="1.70436" fill="#D11C1C" fill-opacity="0.65"/>
<circle cx="42.0559" cy="97.2962" r="1.70436" fill="#D11C1C" fill-opacity="0.65"/>
<circle cx="55.3659" cy="56.9295" r="1.70436" fill="#D11C1C" fill-opacity="0.65"/>
<circle cx="68.6758" cy="56.9295" r="1.70436" fill="#D11C1C" fill-opacity="0.65"/>
<circle cx="81.9857" cy="56.9295" r="1.70436" fill="#D11C1C" fill-opacity="0.65"/>
<circle cx="95.2957" cy="56.9295" r="1.70436" fill="#D11C1C" fill-opacity="0.65"/>
<circle cx="55.3659" cy="70.385" r="1.70436" fill="#D11C1C" fill-opacity="0.65"/>
<circle cx="68.6758" cy="70.385" r="1.70436" fill="#D11C1C" fill-opacity="0.65"/>
<circle cx="81.9857" cy="70.385" r="1.70436" fill="#D11C1C" fill-opacity="0.65"/>
<circle cx="95.2957" cy="70.385" r="1.70436" fill="#D11C1C" fill-opacity="0.65"/>
<circle cx="55.3659" cy="83.8406" r="1.70436" fill="#D11C1C" fill-opacity="0.65"/>
<circle cx="68.6758" cy="83.8406" r="1.70436" fill="#D11C1C" fill-opacity="0.65"/>
<circle cx="81.9857" cy="83.8406" r="1.70436" fill="#D11C1C" fill-opacity="0.65"/>
<circle cx="95.2957" cy="83.8406" r="1.70436" fill="#D11C1C" fill-opacity="0.65"/>
<circle cx="55.3659" cy="97.2962" r="1.70436" fill="#D11C1C" fill-opacity="0.65"/>
<circle cx="68.6758" cy="97.2962" r="1.70436" fill="#D11C1C" fill-opacity="0.65"/>
<circle cx="81.9857" cy="97.2962" r="1.70436" fill="#D11C1C" fill-opacity="0.65"/>
<circle cx="95.2957" cy="97.2962" r="1.70436" fill="#D11C1C" fill-opacity="0.65"/>
<circle cx="55.3659" cy="3.10719" r="1.70436" fill="#D11C1C" fill-opacity="0.65"/>
<circle cx="68.6758" cy="3.10719" r="1.70436" fill="#D11C1C" fill-opacity="0.65"/>
<circle cx="81.9857" cy="3.10719" r="1.70436" fill="#D11C1C" fill-opacity="0.65"/>
<circle cx="95.2957" cy="3.10719" r="1.70436" fill="#D11C1C" fill-opacity="0.65"/>
<circle cx="55.3659" cy="16.5628" r="1.70436" fill="#D11C1C" fill-opacity="0.65"/>
<circle cx="68.6758" cy="16.5628" r="1.70436" fill="#D11C1C" fill-opacity="0.65"/>
<circle cx="81.9857" cy="16.5628" r="1.70436" fill="#D11C1C" fill-opacity="0.65"/>
<circle cx="95.2957" cy="16.5628" r="1.70436" fill="#D11C1C" fill-opacity="0.65"/>
<circle cx="55.3659" cy="30.0188" r="1.70436" fill="#D11C1C" fill-opacity="0.65"/>
<circle cx="68.6758" cy="30.0188" r="1.70436" fill="#D11C1C" fill-opacity="0.65"/>
<circle cx="81.9857" cy="30.0188" r="1.70436" fill="#D11C1C" fill-opacity="0.65"/>
<circle cx="95.2957" cy="30.0188" r="1.70436" fill="#D11C1C" fill-opacity="0.65"/>
<circle cx="55.3659" cy="43.4744" r="1.70436" fill="#D11C1C" fill-opacity="0.65"/>
<circle cx="68.6758" cy="43.4744" r="1.70436" fill="#D11C1C" fill-opacity="0.65"/>
<circle cx="81.9857" cy="43.4744" r="1.70436" fill="#D11C1C" fill-opacity="0.65"/>
<circle cx="95.2957" cy="43.4744" r="1.70436" fill="#D11C1C" fill-opacity="0.65"/>
<circle cx="2.12648" cy="1.76247" r="1.70436" fill="#D11C1C" fill-opacity="0.65"/>
<circle cx="15.4363" cy="1.76198" r="1.70436" fill="#D11C1C" fill-opacity="0.65"/>
<circle cx="28.7461" cy="1.76198" r="1.70436" fill="#D11C1C" fill-opacity="0.65"/>
<circle cx="42.0559" cy="1.76198" r="1.70436" fill="#D11C1C" fill-opacity="0.65"/>
<circle cx="2.12636" cy="15.2171" r="1.70436" fill="#D11C1C" fill-opacity="0.65"/>
<circle cx="15.4363" cy="15.2175" r="1.70436" fill="#D11C1C" fill-opacity="0.65"/>
<circle cx="28.7461" cy="15.2175" r="1.70436" fill="#D11C1C" fill-opacity="0.65"/>
<circle cx="42.0559" cy="15.2175" r="1.70436" fill="#D11C1C" fill-opacity="0.65"/>
<circle cx="2.12636" cy="28.6731" r="1.70436" fill="#D11C1C" fill-opacity="0.65"/>
<circle cx="15.4363" cy="28.6731" r="1.70436" fill="#D11C1C" fill-opacity="0.65"/>
<circle cx="28.7461" cy="28.6731" r="1.70436" fill="#D11C1C" fill-opacity="0.65"/>
<circle cx="42.0559" cy="28.6731" r="1.70436" fill="#D11C1C" fill-opacity="0.65"/>
<circle cx="2.12636" cy="42.1287" r="1.70436" fill="#D11C1C" fill-opacity="0.65"/>
<circle cx="15.4363" cy="42.1287" r="1.70436" fill="#D11C1C" fill-opacity="0.65"/>
<circle cx="28.7461" cy="42.1287" r="1.70436" fill="#D11C1C" fill-opacity="0.65"/>
<circle cx="42.0559" cy="42.1287" r="1.70436" fill="#D11C1C" fill-opacity="0.65"/>
</svg>
