<svg width="98" height="98" viewBox="0 0 98 98" fill="none" xmlns="http://www.w3.org/2000/svg">
<mask id="mask0" mask-type="alpha" maskUnits="userSpaceOnUse" x="0" y="0" width="98" height="98">
<circle cx="48.7986" cy="48.7986" r="48.7986" fill="#00C2DC" fill-opacity="0.88"/>
</mask>
<g mask="url(#mask0)">
<rect x="50.3973" y="-25.7021" width="107.498" height="1.41445" rx="0.707226" transform="rotate(43.1472 50.3973 -25.7021)" fill="#00C2DC" fill-opacity="0.88"/>
<rect x="45.5607" y="-20.542" width="107.498" height="1.41445" rx="0.707226" transform="rotate(43.1472 45.5607 -20.542)" fill="#00C2DC" fill-opacity="0.88"/>
<rect x="40.7242" y="-15.3818" width="107.498" height="1.41445" rx="0.707226" transform="rotate(43.1472 40.7242 -15.3818)" fill="#00C2DC" fill-opacity="0.88"/>
<rect x="35.8877" y="-10.2222" width="107.498" height="1.41445" rx="0.707226" transform="rotate(43.1472 35.8877 -10.2222)" fill="#00C2DC" fill-opacity="0.88"/>
<rect x="31.0511" y="-5.0625" width="107.498" height="1.41445" rx="0.707226" transform="rotate(43.1472 31.0511 -5.0625)" fill="#00C2DC" fill-opacity="0.88"/>
<rect x="26.2146" y="0.0976562" width="107.498" height="1.41445" rx="0.707226" transform="rotate(43.1472 26.2146 0.0976562)" fill="#00C2DC" fill-opacity="0.88"/>
<rect x="22.3453" y="4.22559" width="107.498" height="1.41445" rx="0.707226" transform="rotate(43.1472 22.3453 4.22559)" fill="#00C2DC" fill-opacity="0.88"/>
<rect x="17.5089" y="9.38525" width="107.498" height="1.41445" rx="0.707226" transform="rotate(43.1472 17.5089 9.38525)" fill="#00C2DC" fill-opacity="0.88"/>
<rect x="12.6724" y="14.5454" width="107.498" height="1.41445" rx="0.707226" transform="rotate(43.1472 12.6724 14.5454)" fill="#00C2DC" fill-opacity="0.88"/>
<rect x="7.83582" y="19.7056" width="107.498" height="1.41445" rx="0.707226" transform="rotate(43.1472 7.83582 19.7056)" fill="#00C2DC" fill-opacity="0.88"/>
<rect x="2.99927" y="24.8652" width="107.498" height="1.41445" rx="0.707226" transform="rotate(43.1472 2.99927 24.8652)" fill="#00C2DC" fill-opacity="0.88"/>
<rect x="-1.8374" y="30.0254" width="107.498" height="1.41445" rx="0.707226" transform="rotate(43.1472 -1.8374 30.0254)" fill="#00C2DC" fill-opacity="0.88"/>
<rect x="-6.67383" y="35.1851" width="107.498" height="1.41445" rx="0.707226" transform="rotate(43.1472 -6.67383 35.1851)" fill="#00C2DC" fill-opacity="0.88"/>
<rect x="-11.5104" y="40.3447" width="107.498" height="1.41445" rx="0.707226" transform="rotate(43.1472 -11.5104 40.3447)" fill="#00C2DC" fill-opacity="0.88"/>
<rect x="-16.3469" y="45.5049" width="107.498" height="1.41445" rx="0.707226" transform="rotate(43.1472 -16.3469 45.5049)" fill="#00C2DC" fill-opacity="0.88"/>
<rect x="-21.1835" y="50.665" width="107.498" height="1.41445" rx="0.707226" transform="rotate(43.1472 -21.1835 50.665)" fill="#00C2DC" fill-opacity="0.88"/>
<rect x="-26.02" y="55.8247" width="107.498" height="1.41445" rx="0.707226" transform="rotate(43.1472 -26.02 55.8247)" fill="#00C2DC" fill-opacity="0.88"/>
</g>
</svg>
